<mxfile host="app.diagrams.net" agent="Mozilla/5.0 (Windows NT 10.0; Win64; x64) AppleWebKit/537.36 (KHTML, like Gecko) Chrome/137.0.0.0 Safari/537.36" version="27.1.6">
  <diagram name="Página-1" id="lvZL3sKP5formyCljxQi">
    <mxGraphModel dx="1665" dy="777" grid="1" gridSize="10" guides="1" tooltips="1" connect="1" arrows="1" fold="1" page="1" pageScale="1" pageWidth="827" pageHeight="1169" math="0" shadow="0">
      <root>
        <mxCell id="0" />
        <mxCell id="1" parent="0" />
        <mxCell id="a2TDpx1cAcDriK_TU7PA-1" style="edgeStyle=orthogonalEdgeStyle;rounded=0;orthogonalLoop=1;jettySize=auto;html=1;entryX=0;entryY=0.5;entryDx=0;entryDy=0;" edge="1" parent="1" source="a2TDpx1cAcDriK_TU7PA-3" target="a2TDpx1cAcDriK_TU7PA-4">
          <mxGeometry relative="1" as="geometry" />
        </mxCell>
        <mxCell id="a2TDpx1cAcDriK_TU7PA-2" style="edgeStyle=orthogonalEdgeStyle;rounded=0;orthogonalLoop=1;jettySize=auto;html=1;entryX=0;entryY=0.5;entryDx=0;entryDy=0;" edge="1" parent="1" source="a2TDpx1cAcDriK_TU7PA-3" target="a2TDpx1cAcDriK_TU7PA-8">
          <mxGeometry relative="1" as="geometry" />
        </mxCell>
        <mxCell id="a2TDpx1cAcDriK_TU7PA-3" value="High-accuracy BP&lt;div&gt;(&lt;i&gt;product-sum 10 it.&lt;/i&gt;)&lt;/div&gt;" style="rounded=0;whiteSpace=wrap;html=1;fillColor=#dae8fc;strokeColor=#6c8ebf;" vertex="1" parent="1">
          <mxGeometry x="50" y="110" width="110" height="50" as="geometry" />
        </mxCell>
        <mxCell id="a2TDpx1cAcDriK_TU7PA-4" value="Low-accuracy BP&lt;div&gt;(&lt;i&gt;min-sum 10 it.&lt;/i&gt;&lt;span style=&quot;background-color: transparent; color: light-dark(rgb(0, 0, 0), rgb(255, 255, 255));&quot;&gt;)&lt;/span&gt;&lt;/div&gt;&lt;div&gt;&lt;span style=&quot;background-color: transparent; color: light-dark(rgb(0, 0, 0), rgb(255, 255, 255));&quot;&gt;&lt;br&gt;&lt;/span&gt;&lt;/div&gt;&lt;div&gt;&lt;span style=&quot;color: rgb(64, 64, 64); font-family: KaTeX_Math; font-style: italic; text-wrap-mode: nowrap;&quot;&gt;&lt;font style=&quot;font-size: 13px;&quot;&gt;α = 0.9&lt;/font&gt;&lt;/span&gt;&lt;/div&gt;" style="rounded=0;whiteSpace=wrap;html=1;fillColor=#dae8fc;strokeColor=#6c8ebf;" vertex="1" parent="1">
          <mxGeometry x="200" y="30" width="110" height="60" as="geometry" />
        </mxCell>
        <mxCell id="a2TDpx1cAcDriK_TU7PA-5" value="Low-accuracy BP&lt;div&gt;(&lt;i&gt;min-sum 10 it.&lt;/i&gt;&lt;span style=&quot;background-color: transparent; color: light-dark(rgb(0, 0, 0), rgb(255, 255, 255));&quot;&gt;)&lt;/span&gt;&lt;/div&gt;&lt;div&gt;&lt;span style=&quot;background-color: transparent; color: light-dark(rgb(0, 0, 0), rgb(255, 255, 255));&quot;&gt;&lt;br&gt;&lt;/span&gt;&lt;/div&gt;&lt;div&gt;&lt;span style=&quot;color: rgb(64, 64, 64); font-family: KaTeX_Math; font-style: italic; text-wrap-mode: nowrap;&quot;&gt;&lt;font style=&quot;font-size: 13px;&quot;&gt;α = 0.5&lt;/font&gt;&lt;/span&gt;&lt;/div&gt;" style="rounded=0;whiteSpace=wrap;html=1;fillColor=#dae8fc;strokeColor=#6c8ebf;" vertex="1" parent="1">
          <mxGeometry x="350" y="130" width="110" height="60" as="geometry" />
        </mxCell>
        <mxCell id="a2TDpx1cAcDriK_TU7PA-6" style="edgeStyle=orthogonalEdgeStyle;rounded=0;orthogonalLoop=1;jettySize=auto;html=1;exitX=1;exitY=0.5;exitDx=0;exitDy=0;entryX=0;entryY=0.5;entryDx=0;entryDy=0;" edge="1" parent="1" source="a2TDpx1cAcDriK_TU7PA-8" target="a2TDpx1cAcDriK_TU7PA-5">
          <mxGeometry relative="1" as="geometry" />
        </mxCell>
        <mxCell id="a2TDpx1cAcDriK_TU7PA-7" style="edgeStyle=orthogonalEdgeStyle;rounded=0;orthogonalLoop=1;jettySize=auto;html=1;entryX=0;entryY=0.5;entryDx=0;entryDy=0;" edge="1" parent="1" source="a2TDpx1cAcDriK_TU7PA-8" target="a2TDpx1cAcDriK_TU7PA-9">
          <mxGeometry relative="1" as="geometry" />
        </mxCell>
        <mxCell id="a2TDpx1cAcDriK_TU7PA-8" value="Low-accuracy BP&lt;div&gt;(&lt;i&gt;min-sum 10 it.&lt;/i&gt;&lt;span style=&quot;background-color: transparent; color: light-dark(rgb(0, 0, 0), rgb(255, 255, 255));&quot;&gt;)&lt;/span&gt;&lt;/div&gt;&lt;div&gt;&lt;span style=&quot;background-color: transparent; color: light-dark(rgb(0, 0, 0), rgb(255, 255, 255));&quot;&gt;&lt;br&gt;&lt;/span&gt;&lt;/div&gt;&lt;div&gt;&lt;span style=&quot;color: rgb(64, 64, 64); font-family: KaTeX_Math; font-style: italic; text-wrap-mode: nowrap;&quot;&gt;&lt;font style=&quot;font-size: 13px;&quot;&gt;α = 0.75&lt;/font&gt;&lt;/span&gt;&lt;/div&gt;" style="rounded=0;whiteSpace=wrap;html=1;fillColor=#e1d5e7;strokeColor=#9673a6;" vertex="1" parent="1">
          <mxGeometry x="200" y="180" width="110" height="60" as="geometry" />
        </mxCell>
        <mxCell id="a2TDpx1cAcDriK_TU7PA-9" value="&lt;div style=&quot;line-height: 60%;&quot;&gt;&lt;div style=&quot;line-height: 7.2px;&quot;&gt;&lt;span style=&quot;background-color: transparent; color: light-dark(rgb(0, 0, 0), rgb(255, 255, 255));&quot;&gt;OTF + High-&lt;/span&gt;&lt;/div&gt;&lt;div style=&quot;line-height: 7.2px;&quot;&gt;&lt;span style=&quot;background-color: transparent; color: light-dark(rgb(0, 0, 0), rgb(255, 255, 255));&quot;&gt;&lt;br&gt;&lt;/span&gt;&lt;/div&gt;&lt;div style=&quot;line-height: 7.2px;&quot;&gt;&lt;span style=&quot;background-color: transparent; color: light-dark(rgb(0, 0, 0), rgb(255, 255, 255));&quot;&gt;accuracy BP&lt;/span&gt;&lt;/div&gt;&lt;/div&gt;" style="rounded=0;whiteSpace=wrap;html=1;fillColor=#e1d5e7;strokeColor=#9673a6;" vertex="1" parent="1">
          <mxGeometry x="350" y="230" width="110" height="60" as="geometry" />
        </mxCell>
        <mxCell id="a2TDpx1cAcDriK_TU7PA-10" value="" style="endArrow=none;dashed=1;html=1;rounded=0;" edge="1" parent="1">
          <mxGeometry width="50" height="50" relative="1" as="geometry">
            <mxPoint x="50" y="350" as="sourcePoint" />
            <mxPoint x="50" y="110" as="targetPoint" />
          </mxGeometry>
        </mxCell>
        <mxCell id="a2TDpx1cAcDriK_TU7PA-11" value="" style="endArrow=none;dashed=1;html=1;rounded=0;" edge="1" parent="1">
          <mxGeometry width="50" height="50" relative="1" as="geometry">
            <mxPoint x="160" y="350" as="sourcePoint" />
            <mxPoint x="160" y="110" as="targetPoint" />
          </mxGeometry>
        </mxCell>
        <mxCell id="a2TDpx1cAcDriK_TU7PA-12" value="" style="endArrow=none;dashed=1;html=1;rounded=0;" edge="1" parent="1">
          <mxGeometry width="50" height="50" relative="1" as="geometry">
            <mxPoint x="200" y="350" as="sourcePoint" />
            <mxPoint x="199" y="30" as="targetPoint" />
          </mxGeometry>
        </mxCell>
        <mxCell id="a2TDpx1cAcDriK_TU7PA-13" value="" style="endArrow=none;dashed=1;html=1;rounded=0;" edge="1" parent="1">
          <mxGeometry width="50" height="50" relative="1" as="geometry">
            <mxPoint x="310" y="350" as="sourcePoint" />
            <mxPoint x="309" y="30" as="targetPoint" />
          </mxGeometry>
        </mxCell>
        <mxCell id="a2TDpx1cAcDriK_TU7PA-14" value="" style="endArrow=none;dashed=1;html=1;rounded=0;" edge="1" parent="1">
          <mxGeometry width="50" height="50" relative="1" as="geometry">
            <mxPoint x="350" y="350" as="sourcePoint" />
            <mxPoint x="350" y="90" as="targetPoint" />
          </mxGeometry>
        </mxCell>
        <mxCell id="a2TDpx1cAcDriK_TU7PA-15" value="" style="endArrow=none;dashed=1;html=1;rounded=0;" edge="1" parent="1">
          <mxGeometry width="50" height="50" relative="1" as="geometry">
            <mxPoint x="460" y="350" as="sourcePoint" />
            <mxPoint x="460" y="130" as="targetPoint" />
          </mxGeometry>
        </mxCell>
        <mxCell id="a2TDpx1cAcDriK_TU7PA-16" value="" style="endArrow=classic;startArrow=classic;html=1;rounded=0;" edge="1" parent="1">
          <mxGeometry width="50" height="50" relative="1" as="geometry">
            <mxPoint x="50" y="340" as="sourcePoint" />
            <mxPoint x="160" y="340" as="targetPoint" />
          </mxGeometry>
        </mxCell>
        <mxCell id="a2TDpx1cAcDriK_TU7PA-17" value="" style="endArrow=classic;startArrow=classic;html=1;rounded=0;" edge="1" parent="1">
          <mxGeometry width="50" height="50" relative="1" as="geometry">
            <mxPoint x="200" y="340" as="sourcePoint" />
            <mxPoint x="310" y="340" as="targetPoint" />
          </mxGeometry>
        </mxCell>
        <mxCell id="a2TDpx1cAcDriK_TU7PA-18" value="" style="endArrow=classic;startArrow=classic;html=1;rounded=0;" edge="1" parent="1">
          <mxGeometry width="50" height="50" relative="1" as="geometry">
            <mxPoint x="350" y="109.16999999999996" as="sourcePoint" />
            <mxPoint x="460" y="109.16999999999996" as="targetPoint" />
          </mxGeometry>
        </mxCell>
        <mxCell id="a2TDpx1cAcDriK_TU7PA-19" value="" style="endArrow=none;dashed=1;html=1;rounded=0;" edge="1" parent="1">
          <mxGeometry width="50" height="50" relative="1" as="geometry">
            <mxPoint x="460" y="350" as="sourcePoint" />
            <mxPoint x="460" y="90" as="targetPoint" />
          </mxGeometry>
        </mxCell>
        <mxCell id="a2TDpx1cAcDriK_TU7PA-20" value="&lt;font style=&quot;font-size: 10px;&quot;&gt;10 iterations&lt;/font&gt;" style="text;html=1;align=center;verticalAlign=middle;whiteSpace=wrap;rounded=0;" vertex="1" parent="1">
          <mxGeometry x="60" y="320" width="90" height="20" as="geometry" />
        </mxCell>
        <mxCell id="a2TDpx1cAcDriK_TU7PA-21" value="&lt;font style=&quot;font-size: 10px;&quot;&gt;10 iterations&lt;/font&gt;" style="text;html=1;align=center;verticalAlign=middle;whiteSpace=wrap;rounded=0;" vertex="1" parent="1">
          <mxGeometry x="210" y="320" width="90" height="20" as="geometry" />
        </mxCell>
        <mxCell id="a2TDpx1cAcDriK_TU7PA-22" value="&lt;font style=&quot;font-size: 10px;&quot;&gt;10 iterations&lt;/font&gt;" style="text;html=1;align=center;verticalAlign=middle;whiteSpace=wrap;rounded=0;" vertex="1" parent="1">
          <mxGeometry x="360" y="89.16999999999996" width="90" height="20" as="geometry" />
        </mxCell>
        <mxCell id="a2TDpx1cAcDriK_TU7PA-23" value="" style="endArrow=classic;startArrow=classic;html=1;rounded=0;" edge="1" parent="1">
          <mxGeometry width="50" height="50" relative="1" as="geometry">
            <mxPoint x="350" y="340" as="sourcePoint" />
            <mxPoint x="460" y="340" as="targetPoint" />
          </mxGeometry>
        </mxCell>
        <mxCell id="a2TDpx1cAcDriK_TU7PA-24" value="&lt;font style=&quot;font-size: 10px;&quot;&gt;30 iterations&lt;/font&gt;" style="text;html=1;align=center;verticalAlign=middle;whiteSpace=wrap;rounded=0;" vertex="1" parent="1">
          <mxGeometry x="360" y="320" width="90" height="20" as="geometry" />
        </mxCell>
      </root>
    </mxGraphModel>
  </diagram>
</mxfile>
